<?xml version="1.0" standalone="no"?>
<svg xmlns:xlink="http://www.w3.org/1999/xlink" id="wave" style="transform:rotate(180deg); transition: 0.3s" viewBox="0 0 1440 110" version="1.1" xmlns="http://www.w3.org/2000/svg"><defs><linearGradient id="sw-gradient-0" x1="0" x2="0" y1="1" y2="0"><stop stop-color="#ff5800" offset="0%"/><stop stop-color="#ff5800" offset="100%"/></linearGradient></defs><path style="transform:translate(0, 0px); opacity:1" fill="url(#sw-gradient-0)" d="M0,33L10,44C20,55,40,77,60,73.3C80,70,100,40,120,29.3C140,18,160,26,180,29.3C200,33,220,33,240,31.2C260,29,280,26,300,27.5C320,29,340,37,360,42.2C380,48,400,51,420,58.7C440,66,460,77,480,84.3C500,92,520,95,540,97.2C560,99,580,99,600,82.5C620,66,640,33,660,18.3C680,4,700,7,720,7.3C740,7,760,4,780,3.7C800,4,820,7,840,12.8C860,18,880,26,900,27.5C920,29,940,26,960,25.7C980,26,1000,29,1020,31.2C1040,33,1060,33,1080,40.3C1100,48,1120,62,1140,60.5C1160,59,1180,40,1200,40.3C1220,40,1240,59,1260,60.5C1280,62,1300,48,1320,45.8C1340,44,1360,55,1380,56.8C1400,59,1420,51,1430,47.7L1440,44L1440,110L1430,110C1420,110,1400,110,1380,110C1360,110,1340,110,1320,110C1300,110,1280,110,1260,110C1240,110,1220,110,1200,110C1180,110,1160,110,1140,110C1120,110,1100,110,1080,110C1060,110,1040,110,1020,110C1000,110,980,110,960,110C940,110,920,110,900,110C880,110,860,110,840,110C820,110,800,110,780,110C760,110,740,110,720,110C700,110,680,110,660,110C640,110,620,110,600,110C580,110,560,110,540,110C520,110,500,110,480,110C460,110,440,110,420,110C400,110,380,110,360,110C340,110,320,110,300,110C280,110,260,110,240,110C220,110,200,110,180,110C160,110,140,110,120,110C100,110,80,110,60,110C40,110,20,110,10,110L0,110Z"/></svg>