<?xml version="1.0" standalone="no"?>
<svg xmlns:xlink="http://www.w3.org/1999/xlink" id="wave" style="transform:rotate(180deg); transition: 0.3s" viewBox="0 0 1440 170" version="1.1" xmlns="http://www.w3.org/2000/svg"><defs><linearGradient  id="sw-gradient-0" x1="0" x2="1" y1="0" y2="0"><stop stop-color="#ff3c00" offset="0%"/><stop stop-color="#930032" offset="45%"/></linearGradient></defs><path style="transform:translate(0, 0px); opacity:1" fill="url(#sw-gradient-0)"  d="M0,102L130.9,68L261.8,153L392.7,0L523.6,119L654.5,102L785.5,119L916.4,51L1047.3,0L1178.2,119L1309.1,68L1440,68L1570.9,85L1701.8,119L1832.7,17L1963.6,0L2094.5,136L2225.5,119L2356.4,0L2487.3,51L2618.2,68L2749.1,102L2880,119L3010.9,0L3141.8,17L3141.8,170L3010.9,170L2880,170L2749.1,170L2618.2,170L2487.3,170L2356.4,170L2225.5,170L2094.5,170L1963.6,170L1832.7,170L1701.8,170L1570.9,170L1440,170L1309.1,170L1178.2,170L1047.3,170L916.4,170L785.5,170L654.5,170L523.6,170L392.7,170L261.8,170L130.9,170L0,170Z"/></svg>